<svg width="400" height="400" viewBox="0 0 400 400" fill="none" xmlns="http://www.w3.org/2000/svg">
<g clip-path="url(#clip0_19_4591)">
<rect x="3" y="67" width="394.5" height="264.352" stroke="#E2F700" stroke-width="6"/>
<path d="M265 263.766V199.177H329.911C365.583 199.177 394.5 228.094 394.5 263.766V263.766H265Z" fill="#00DA72"/>
<path d="M265 328.354V263.766H394.5V263.766C394.5 299.437 365.583 328.354 329.911 328.354H265Z" fill="#FF5B17"/>
<rect width="129.177" height="129.5" transform="matrix(0 -1 -1 0 265 328.354)" fill="#2C4942"/>
<rect width="32.3347" height="32.3347" transform="matrix(-0.707989 0.706223 0.707989 0.706223 200.25 241.16)" fill="#E2F700"/>
<path d="M265 70V199.177H200.089C164.417 199.177 135.5 170.26 135.5 134.589V134.589C135.5 98.9173 164.417 70 200.089 70H265Z" fill="#4042EE"/>
<ellipse cx="32.375" cy="32.2943" rx="32.375" ry="32.2943" transform="matrix(1 0 0 -1 167.871 166.883)" fill="#FF92B7"/>
<rect width="129.177" height="129.5" transform="matrix(0 1 1 0 265 70)" fill="#D2DCDC"/>
<ellipse cx="275.36" cy="80.3341" rx="1.9425" ry="1.93766" fill="#E2F700"/>
<ellipse cx="288.958" cy="80.3341" rx="1.9425" ry="1.93766" fill="#E2F700"/>
<ellipse cx="302.555" cy="80.3341" rx="1.9425" ry="1.93766" fill="#E2F700"/>
<ellipse cx="316.152" cy="80.3341" rx="1.9425" ry="1.93766" fill="#E2F700"/>
<ellipse cx="329.751" cy="80.3341" rx="1.9425" ry="1.93766" fill="#E2F700"/>
<ellipse cx="343.348" cy="80.3341" rx="1.9425" ry="1.93766" fill="#E2F700"/>
<ellipse cx="356.945" cy="80.3341" rx="1.9425" ry="1.93766" fill="#E2F700"/>
<ellipse cx="370.543" cy="80.3341" rx="1.9425" ry="1.93766" fill="#E2F700"/>
<ellipse cx="384.14" cy="80.3341" rx="1.9425" ry="1.93766" fill="#E2F700"/>
<ellipse cx="275.36" cy="93.8977" rx="1.9425" ry="1.93766" fill="#E2F700"/>
<ellipse cx="288.958" cy="93.8977" rx="1.9425" ry="1.93766" fill="#E2F700"/>
<ellipse cx="302.555" cy="93.8977" rx="1.9425" ry="1.93766" fill="#E2F700"/>
<ellipse cx="316.152" cy="93.8977" rx="1.9425" ry="1.93766" fill="#E2F700"/>
<ellipse cx="329.751" cy="93.8977" rx="1.9425" ry="1.93766" fill="#E2F700"/>
<ellipse cx="343.348" cy="93.8977" rx="1.9425" ry="1.93766" fill="#E2F700"/>
<ellipse cx="356.945" cy="93.8977" rx="1.9425" ry="1.93766" fill="#E2F700"/>
<ellipse cx="370.543" cy="93.8977" rx="1.9425" ry="1.93766" fill="#E2F700"/>
<ellipse cx="384.14" cy="93.8977" rx="1.9425" ry="1.93766" fill="#E2F700"/>
<ellipse cx="275.36" cy="107.461" rx="1.9425" ry="1.93766" fill="#E2F700"/>
<ellipse cx="288.958" cy="107.461" rx="1.9425" ry="1.93766" fill="#E2F700"/>
<ellipse cx="302.555" cy="107.461" rx="1.9425" ry="1.93766" fill="#E2F700"/>
<ellipse cx="316.152" cy="107.461" rx="1.9425" ry="1.93766" fill="#E2F700"/>
<ellipse cx="329.751" cy="107.461" rx="1.9425" ry="1.93766" fill="#E2F700"/>
<ellipse cx="343.348" cy="107.461" rx="1.9425" ry="1.93766" fill="#E2F700"/>
<ellipse cx="356.945" cy="107.461" rx="1.9425" ry="1.93766" fill="#E2F700"/>
<ellipse cx="370.543" cy="107.461" rx="1.9425" ry="1.93766" fill="#E2F700"/>
<ellipse cx="384.14" cy="107.461" rx="1.9425" ry="1.93766" fill="#E2F700"/>
<ellipse cx="275.36" cy="121.025" rx="1.9425" ry="1.93766" fill="#E2F700"/>
<ellipse cx="288.958" cy="121.025" rx="1.9425" ry="1.93766" fill="#E2F700"/>
<ellipse cx="302.555" cy="121.025" rx="1.9425" ry="1.93766" fill="#E2F700"/>
<ellipse cx="316.152" cy="121.025" rx="1.9425" ry="1.93766" fill="#E2F700"/>
<ellipse cx="329.751" cy="121.025" rx="1.9425" ry="1.93766" fill="#E2F700"/>
<ellipse cx="343.348" cy="121.025" rx="1.9425" ry="1.93766" fill="#E2F700"/>
<ellipse cx="356.945" cy="121.025" rx="1.9425" ry="1.93766" fill="#E2F700"/>
<ellipse cx="370.543" cy="121.025" rx="1.9425" ry="1.93766" fill="#E2F700"/>
<ellipse cx="384.14" cy="121.025" rx="1.9425" ry="1.93766" fill="#E2F700"/>
<ellipse cx="275.36" cy="134.589" rx="1.9425" ry="1.93766" fill="#E2F700"/>
<ellipse cx="288.958" cy="134.589" rx="1.9425" ry="1.93766" fill="#E2F700"/>
<ellipse cx="302.555" cy="134.589" rx="1.9425" ry="1.93766" fill="#E2F700"/>
<ellipse cx="316.152" cy="134.589" rx="1.9425" ry="1.93766" fill="#E2F700"/>
<ellipse cx="329.751" cy="134.589" rx="1.9425" ry="1.93766" fill="#E2F700"/>
<ellipse cx="343.348" cy="134.589" rx="1.9425" ry="1.93766" fill="#E2F700"/>
<ellipse cx="356.945" cy="134.589" rx="1.9425" ry="1.93766" fill="#E2F700"/>
<ellipse cx="370.543" cy="134.589" rx="1.9425" ry="1.93766" fill="#E2F700"/>
<ellipse cx="384.14" cy="134.589" rx="1.9425" ry="1.93766" fill="#E2F700"/>
<ellipse cx="275.36" cy="148.152" rx="1.9425" ry="1.93766" fill="#E2F700"/>
<ellipse cx="288.958" cy="148.152" rx="1.9425" ry="1.93766" fill="#E2F700"/>
<ellipse cx="302.555" cy="148.152" rx="1.9425" ry="1.93766" fill="#E2F700"/>
<ellipse cx="316.152" cy="148.152" rx="1.9425" ry="1.93766" fill="#E2F700"/>
<ellipse cx="329.751" cy="148.152" rx="1.9425" ry="1.93766" fill="#E2F700"/>
<ellipse cx="343.348" cy="148.152" rx="1.9425" ry="1.93766" fill="#E2F700"/>
<ellipse cx="356.945" cy="148.152" rx="1.9425" ry="1.93766" fill="#E2F700"/>
<ellipse cx="370.543" cy="148.152" rx="1.9425" ry="1.93766" fill="#E2F700"/>
<ellipse cx="384.14" cy="148.152" rx="1.9425" ry="1.93766" fill="#E2F700"/>
<ellipse cx="275.36" cy="161.716" rx="1.9425" ry="1.93766" fill="#E2F700"/>
<ellipse cx="288.958" cy="161.716" rx="1.9425" ry="1.93766" fill="#E2F700"/>
<ellipse cx="302.555" cy="161.716" rx="1.9425" ry="1.93766" fill="#E2F700"/>
<ellipse cx="316.152" cy="161.716" rx="1.9425" ry="1.93766" fill="#E2F700"/>
<ellipse cx="329.751" cy="161.716" rx="1.9425" ry="1.93766" fill="#E2F700"/>
<ellipse cx="343.348" cy="161.716" rx="1.9425" ry="1.93766" fill="#E2F700"/>
<ellipse cx="356.945" cy="161.716" rx="1.9425" ry="1.93766" fill="#E2F700"/>
<ellipse cx="370.543" cy="161.716" rx="1.9425" ry="1.93766" fill="#E2F700"/>
<ellipse cx="384.14" cy="161.716" rx="1.9425" ry="1.93766" fill="#E2F700"/>
<ellipse cx="275.36" cy="175.279" rx="1.9425" ry="1.93766" fill="#E2F700"/>
<ellipse cx="288.958" cy="175.279" rx="1.9425" ry="1.93766" fill="#E2F700"/>
<ellipse cx="302.555" cy="175.279" rx="1.9425" ry="1.93766" fill="#E2F700"/>
<ellipse cx="316.152" cy="175.279" rx="1.9425" ry="1.93766" fill="#E2F700"/>
<ellipse cx="329.751" cy="175.279" rx="1.9425" ry="1.93766" fill="#E2F700"/>
<ellipse cx="343.348" cy="175.279" rx="1.9425" ry="1.93766" fill="#E2F700"/>
<ellipse cx="356.945" cy="175.279" rx="1.9425" ry="1.93766" fill="#E2F700"/>
<ellipse cx="370.543" cy="175.279" rx="1.9425" ry="1.93766" fill="#E2F700"/>
<ellipse cx="384.14" cy="175.279" rx="1.9425" ry="1.93766" fill="#E2F700"/>
<ellipse cx="275.36" cy="188.843" rx="1.9425" ry="1.93766" fill="#E2F700"/>
<ellipse cx="288.958" cy="188.843" rx="1.9425" ry="1.93766" fill="#E2F700"/>
<ellipse cx="302.555" cy="188.843" rx="1.9425" ry="1.93766" fill="#E2F700"/>
<ellipse cx="316.152" cy="188.843" rx="1.9425" ry="1.93766" fill="#E2F700"/>
<ellipse cx="329.751" cy="188.843" rx="1.9425" ry="1.93766" fill="#E2F700"/>
<ellipse cx="343.348" cy="188.843" rx="1.9425" ry="1.93766" fill="#E2F700"/>
<ellipse cx="356.945" cy="188.843" rx="1.9425" ry="1.93766" fill="#E2F700"/>
<ellipse cx="370.543" cy="188.843" rx="1.9425" ry="1.93766" fill="#E2F700"/>
<ellipse cx="384.14" cy="188.843" rx="1.9425" ry="1.93766" fill="#E2F700"/>
<rect x="135.5" y="70" width="129.823" height="129.5" transform="rotate(90 135.5 70)" fill="#FF92B7"/>
<path d="M6 70V199.823L135.5 70L6 70Z" fill="#00DA72"/>
<rect width="129.177" height="129.5" transform="matrix(0 1 1 0 6 199.823)" fill="#4042EE"/>
<path d="M5.99998 199.823C5.99998 216.787 9.3496 233.584 15.8576 249.257C22.3656 264.929 31.9045 279.17 43.9297 291.165C55.9548 303.16 70.2308 312.675 85.9425 319.167C101.654 325.659 118.494 329 135.5 329L135.5 199.823H5.99998Z" fill="#1D2336"/>
<path fill-rule="evenodd" clip-rule="evenodd" d="M121.765 199.823H130.922L6 324.433V315.299L121.765 199.823ZM19.7357 329H10.5786L135.5 204.39V213.524L19.7357 329ZM28.8927 329H38.0498L135.5 231.793V222.659L28.8927 329ZM56.3639 329H47.2068L135.5 240.927V250.061L56.3639 329ZM65.5209 329H74.678L135.5 268.33V259.195L65.5209 329ZM92.9921 329H83.8351L135.5 277.464V286.598L92.9921 329ZM102.149 329H111.306L135.5 304.866V295.732L102.149 329ZM129.62 329H120.463L135.5 314.001V323.134L129.62 329ZM112.608 199.823H103.45L6 297.03V306.165L112.608 199.823ZM85.1363 199.823H94.2934L6 287.896V278.762L85.1363 199.823ZM75.9793 199.823H66.8222L6 260.493V269.628L75.9793 199.823ZM48.5086 199.823H57.6652L6 251.359V242.226L48.5086 199.823ZM39.3516 199.823H30.194L6 223.957V233.091L39.3516 199.823ZM11.8806 199.823H21.037L6 214.822V205.689L11.8806 199.823Z" fill="#00DA72"/>
</g>
<defs>
<clipPath id="clip0_19_4591">
<rect width="400" height="400" fill="white"/>
</clipPath>
</defs>
</svg>
