<svg width="400" height="400" viewBox="0 0 400 400" fill="none" xmlns="http://www.w3.org/2000/svg">
<path d="M266.667 266.501V200.001H333.499C370.227 200.001 400 229.774 400 266.501V266.501H266.667Z" fill="#E2F700"/>
<path d="M266.667 333.002V266.501H400V266.501C400 303.228 370.227 333.002 333.499 333.002H266.667Z" fill="#FF5B17"/>
<rect width="133.001" height="133.333" transform="matrix(0 -1 -1 0 266.667 333.002)" fill="#7C90A2"/>
<rect width="33.2918" height="33.2918" transform="matrix(-0.707989 0.706223 0.707989 0.706223 200 243.226)" fill="#4042EE"/>
<path d="M266.667 67V200.001H199.834C163.106 200.001 133.333 170.228 133.333 133.5V133.5C133.333 96.7733 163.106 67 199.834 67H266.667Z" fill="#4042EE"/>
<ellipse cx="33.3333" cy="33.2502" rx="33.3333" ry="33.2502" transform="matrix(1 0 0 -1 166.662 166.751)" fill="#FF92B7"/>
<rect width="133.001" height="133.333" transform="matrix(0 1 1 0 266.667 67)" fill="#D2DCDC"/>
<ellipse cx="277.333" cy="77.6401" rx="2" ry="1.99501" fill="#00DA72"/>
<ellipse cx="291.333" cy="77.6401" rx="2" ry="1.99501" fill="#00DA72"/>
<ellipse cx="305.333" cy="77.6401" rx="2" ry="1.99501" fill="#00DA72"/>
<ellipse cx="319.333" cy="77.6401" rx="2" ry="1.99501" fill="#00DA72"/>
<ellipse cx="333.333" cy="77.6401" rx="2" ry="1.99501" fill="#00DA72"/>
<ellipse cx="347.333" cy="77.6401" rx="2" ry="1.99501" fill="#00DA72"/>
<ellipse cx="361.333" cy="77.6401" rx="2" ry="1.99501" fill="#00DA72"/>
<ellipse cx="375.333" cy="77.6401" rx="2" ry="1.99501" fill="#00DA72"/>
<ellipse cx="389.333" cy="77.6401" rx="2" ry="1.99501" fill="#00DA72"/>
<ellipse cx="277.333" cy="91.6051" rx="2" ry="1.99501" fill="#00DA72"/>
<ellipse cx="291.333" cy="91.6051" rx="2" ry="1.99501" fill="#00DA72"/>
<ellipse cx="305.333" cy="91.6051" rx="2" ry="1.99501" fill="#00DA72"/>
<ellipse cx="319.333" cy="91.6051" rx="2" ry="1.99501" fill="#00DA72"/>
<ellipse cx="333.333" cy="91.6051" rx="2" ry="1.99501" fill="#00DA72"/>
<ellipse cx="347.333" cy="91.6051" rx="2" ry="1.99501" fill="#00DA72"/>
<ellipse cx="361.333" cy="91.6051" rx="2" ry="1.99501" fill="#00DA72"/>
<ellipse cx="375.333" cy="91.6051" rx="2" ry="1.99501" fill="#00DA72"/>
<ellipse cx="389.333" cy="91.6051" rx="2" ry="1.99501" fill="#00DA72"/>
<ellipse cx="277.333" cy="105.57" rx="2" ry="1.99501" fill="#00DA72"/>
<ellipse cx="291.333" cy="105.57" rx="2" ry="1.99501" fill="#00DA72"/>
<ellipse cx="305.333" cy="105.57" rx="2" ry="1.99501" fill="#00DA72"/>
<ellipse cx="319.333" cy="105.57" rx="2" ry="1.99501" fill="#00DA72"/>
<ellipse cx="333.333" cy="105.57" rx="2" ry="1.99501" fill="#00DA72"/>
<ellipse cx="347.333" cy="105.57" rx="2" ry="1.99501" fill="#00DA72"/>
<ellipse cx="361.333" cy="105.57" rx="2" ry="1.99501" fill="#00DA72"/>
<ellipse cx="375.333" cy="105.57" rx="2" ry="1.99501" fill="#00DA72"/>
<ellipse cx="389.333" cy="105.57" rx="2" ry="1.99501" fill="#00DA72"/>
<ellipse cx="277.333" cy="119.535" rx="2" ry="1.99501" fill="#00DA72"/>
<ellipse cx="291.333" cy="119.535" rx="2" ry="1.99501" fill="#00DA72"/>
<ellipse cx="305.333" cy="119.535" rx="2" ry="1.99501" fill="#00DA72"/>
<ellipse cx="319.333" cy="119.535" rx="2" ry="1.99501" fill="#00DA72"/>
<ellipse cx="333.333" cy="119.535" rx="2" ry="1.99501" fill="#00DA72"/>
<ellipse cx="347.333" cy="119.535" rx="2" ry="1.99501" fill="#00DA72"/>
<ellipse cx="361.333" cy="119.535" rx="2" ry="1.99501" fill="#00DA72"/>
<ellipse cx="375.333" cy="119.535" rx="2" ry="1.99501" fill="#00DA72"/>
<ellipse cx="389.333" cy="119.535" rx="2" ry="1.99501" fill="#00DA72"/>
<ellipse cx="277.333" cy="133.5" rx="2" ry="1.99501" fill="#00DA72"/>
<ellipse cx="291.333" cy="133.5" rx="2" ry="1.99501" fill="#00DA72"/>
<ellipse cx="305.333" cy="133.5" rx="2" ry="1.99501" fill="#00DA72"/>
<ellipse cx="319.333" cy="133.5" rx="2" ry="1.99501" fill="#00DA72"/>
<ellipse cx="333.333" cy="133.5" rx="2" ry="1.99501" fill="#00DA72"/>
<ellipse cx="347.333" cy="133.5" rx="2" ry="1.99501" fill="#00DA72"/>
<ellipse cx="361.333" cy="133.5" rx="2" ry="1.99501" fill="#00DA72"/>
<ellipse cx="375.333" cy="133.5" rx="2" ry="1.99501" fill="#00DA72"/>
<ellipse cx="389.333" cy="133.5" rx="2" ry="1.99501" fill="#00DA72"/>
<ellipse cx="277.333" cy="147.465" rx="2" ry="1.99501" fill="#00DA72"/>
<ellipse cx="291.333" cy="147.465" rx="2" ry="1.99501" fill="#00DA72"/>
<ellipse cx="305.333" cy="147.465" rx="2" ry="1.99501" fill="#00DA72"/>
<ellipse cx="319.333" cy="147.465" rx="2" ry="1.99501" fill="#00DA72"/>
<ellipse cx="333.333" cy="147.465" rx="2" ry="1.99501" fill="#00DA72"/>
<ellipse cx="347.333" cy="147.465" rx="2" ry="1.99501" fill="#00DA72"/>
<ellipse cx="361.333" cy="147.465" rx="2" ry="1.99501" fill="#00DA72"/>
<ellipse cx="375.333" cy="147.465" rx="2" ry="1.99501" fill="#00DA72"/>
<ellipse cx="389.333" cy="147.465" rx="2" ry="1.99501" fill="#00DA72"/>
<ellipse cx="277.333" cy="161.431" rx="2" ry="1.99501" fill="#00DA72"/>
<ellipse cx="291.333" cy="161.431" rx="2" ry="1.99501" fill="#00DA72"/>
<ellipse cx="305.333" cy="161.431" rx="2" ry="1.99501" fill="#00DA72"/>
<ellipse cx="319.333" cy="161.431" rx="2" ry="1.99501" fill="#00DA72"/>
<ellipse cx="333.333" cy="161.431" rx="2" ry="1.99501" fill="#00DA72"/>
<ellipse cx="347.333" cy="161.431" rx="2" ry="1.99501" fill="#00DA72"/>
<ellipse cx="361.333" cy="161.431" rx="2" ry="1.99501" fill="#00DA72"/>
<ellipse cx="375.333" cy="161.431" rx="2" ry="1.99501" fill="#00DA72"/>
<ellipse cx="389.333" cy="161.431" rx="2" ry="1.99501" fill="#00DA72"/>
<ellipse cx="277.333" cy="175.396" rx="2" ry="1.99501" fill="#00DA72"/>
<ellipse cx="291.333" cy="175.396" rx="2" ry="1.99501" fill="#00DA72"/>
<ellipse cx="305.333" cy="175.396" rx="2" ry="1.99501" fill="#00DA72"/>
<ellipse cx="319.333" cy="175.396" rx="2" ry="1.99501" fill="#00DA72"/>
<ellipse cx="333.333" cy="175.396" rx="2" ry="1.99501" fill="#00DA72"/>
<ellipse cx="347.333" cy="175.396" rx="2" ry="1.99501" fill="#00DA72"/>
<ellipse cx="361.333" cy="175.396" rx="2" ry="1.99501" fill="#00DA72"/>
<ellipse cx="375.333" cy="175.396" rx="2" ry="1.99501" fill="#00DA72"/>
<ellipse cx="389.333" cy="175.396" rx="2" ry="1.99501" fill="#00DA72"/>
<ellipse cx="277.333" cy="189.361" rx="2" ry="1.99501" fill="#00DA72"/>
<ellipse cx="291.333" cy="189.361" rx="2" ry="1.99501" fill="#00DA72"/>
<ellipse cx="305.333" cy="189.361" rx="2" ry="1.99501" fill="#00DA72"/>
<ellipse cx="319.333" cy="189.361" rx="2" ry="1.99501" fill="#00DA72"/>
<ellipse cx="333.333" cy="189.361" rx="2" ry="1.99501" fill="#00DA72"/>
<ellipse cx="347.333" cy="189.361" rx="2" ry="1.99501" fill="#00DA72"/>
<ellipse cx="361.333" cy="189.361" rx="2" ry="1.99501" fill="#00DA72"/>
<ellipse cx="375.333" cy="189.361" rx="2" ry="1.99501" fill="#00DA72"/>
<ellipse cx="389.333" cy="189.361" rx="2" ry="1.99501" fill="#00DA72"/>
<rect x="133.333" y="67.665" width="133.001" height="133.333" transform="rotate(90 133.333 67.665)" fill="#2C4942"/>
<path d="M0.000167847 67.665V200.666L133.333 67.665L0.000167847 67.665Z" fill="#E2F700"/>
<rect width="133.001" height="133.333" transform="matrix(0 1 1 0 0 200.666)" fill="#7C90A2"/>
<path d="M0.000148614 200.666C0.000148614 218.132 3.44891 235.427 10.1495 251.563C16.8502 267.699 26.6714 282.361 39.0526 294.712C51.4337 307.062 66.1323 316.859 82.309 323.543C98.4858 330.226 115.824 333.667 133.333 333.667L133.333 200.666H0.000148614Z" fill="#1D2336"/>
<path fill-rule="evenodd" clip-rule="evenodd" d="M119.191 200.666H128.62L0 328.965V319.56L119.191 200.666ZM14.1424 333.667H4.71432L133.333 205.368V214.773L14.1424 333.667ZM23.5705 333.667H32.9985L133.333 233.582V224.177L23.5705 333.667ZM51.8547 333.667H42.4266L133.333 242.987V252.391L51.8547 333.667ZM61.2828 333.667H70.7108L133.333 271.2V261.796L61.2828 333.667ZM89.567 333.667H80.1389L133.333 280.605V290.009L89.567 333.667ZM98.9951 333.667H108.423L133.333 308.819V299.414L98.9951 333.667ZM127.279 333.667H117.851L133.333 318.223V327.628L127.279 333.667ZM109.763 200.666H100.335L0 300.751V310.155L109.763 200.666ZM81.4789 200.666H90.9069L0 291.346V281.941L81.4789 200.666ZM72.0508 200.666H62.6227L0 263.132V272.537L72.0508 200.666ZM43.7666 200.666H53.1946L0 253.728V244.323L43.7666 200.666ZM34.3385 200.666H24.9104L0 225.514V234.919L34.3385 200.666ZM6.0541 200.666H15.4823L0 216.11V206.705L6.0541 200.666Z" fill="#00DA72"/>
</svg>
